HIERARCHY
ROOT Hips
{
	OFFSET 0.000000 0.000000 0.000000
	CHANNELS 6 Xposition Yposition Zposition Zrotation Xrotation Yrotation
	JOINT Spine
	{
		OFFSET 0.000000 -0.000000 0.070167
		CHANNELS 6 Xposition Yposition Zposition Zrotation Xrotation Yrotation
		JOINT Spine1
		{
			OFFSET 0.000000 -0.000000 0.166666
			CHANNELS 6 Xposition Yposition Zposition Zrotation Xrotation Yrotation
			JOINT Neck
			{
				OFFSET 0.000000 -0.000000 0.183780
				CHANNELS 6 Xposition Yposition Zposition Zrotation Xrotation Yrotation
				JOINT Head
				{
					OFFSET 0.000000 -0.017114 0.132633
					CHANNELS 6 Xposition Yposition Zposition Zrotation Xrotation Yrotation
					End Site
					{
						OFFSET 0.000000 -0.000000 0.171140
					}
				}
			}
			JOINT LeftShoulder
			{
				OFFSET 0.034466 0.004091 0.144174
				CHANNELS 6 Xposition Yposition Zposition Zrotation Xrotation Yrotation
				JOINT LeftArm
				{
					OFFSET 0.121044 0.000000 0.000000
					CHANNELS 6 Xposition Yposition Zposition Zrotation Xrotation Yrotation
					JOINT LeftForeArm
					{
						OFFSET 0.257070 0.000000 0.000000
						CHANNELS 6 Xposition Yposition Zposition Zrotation Xrotation Yrotation
						JOINT LeftHand
						{
							OFFSET 0.224060 0.000000 0.000000
							CHANNELS 6 Xposition Yposition Zposition Zrotation Xrotation Yrotation
							End Site
							{
								OFFSET 0.128355 0.000000 0.000000
							}
						}
					}
				}
			}
			JOINT RightShoulder
			{
				OFFSET -0.033538 0.004091 0.144174
				CHANNELS 6 Xposition Yposition Zposition Zrotation Xrotation Yrotation
				JOINT RightArm
				{
					OFFSET -0.121044 0.000000 0.000000
					CHANNELS 6 Xposition Yposition Zposition Zrotation Xrotation Yrotation
					JOINT RightForeArm
					{
						OFFSET -0.257070 0.000000 0.000000
						CHANNELS 6 Xposition Yposition Zposition Zrotation Xrotation Yrotation
						JOINT RightHand
						{
							OFFSET -0.224060 0.000000 0.000000
							CHANNELS 6 Xposition Yposition Zposition Zrotation Xrotation Yrotation
							End Site
							{
								OFFSET -0.128355 0.000000 0.000000
							}
						}
					}
				}
			}
		}
	}
	JOINT LeftUpLeg
	{
		OFFSET 0.085570 0.000000 0.000000
		CHANNELS 6 Xposition Yposition Zposition Zrotation Xrotation Yrotation
		JOINT LeftLeg
		{
			OFFSET 0.000000 0.000000 -0.385526
			CHANNELS 6 Xposition Yposition Zposition Zrotation Xrotation Yrotation
			JOINT LeftFoot
			{
				OFFSET 0.000000 0.000000 -0.365921
				CHANNELS 6 Xposition Yposition Zposition Zrotation Xrotation Yrotation
				JOINT LeftToeBase
				{
					OFFSET 0.000000 -0.128355 -0.055620
					CHANNELS 6 Xposition Yposition Zposition Zrotation Xrotation Yrotation
					End Site
					{
						OFFSET 0.000000 -0.034228 0.000000
					}
				}
			}
		}
	}
	JOINT RightUpLeg
	{
		OFFSET -0.085570 0.000000 0.000000
		CHANNELS 6 Xposition Yposition Zposition Zrotation Xrotation Yrotation
		JOINT RightLeg
		{
			OFFSET 0.000000 0.000000 -0.385526
			CHANNELS 6 Xposition Yposition Zposition Zrotation Xrotation Yrotation
			JOINT RightFoot
			{
				OFFSET 0.000000 0.000000 -0.365921
				CHANNELS 6 Xposition Yposition Zposition Zrotation Xrotation Yrotation
				JOINT RightToeBase
				{
					OFFSET 0.000000 -0.128355 -0.055620
					CHANNELS 6 Xposition Yposition Zposition Zrotation Xrotation Yrotation
					End Site
					{
						OFFSET 0.000000 -0.034228 0.000000
					}
				}
			}
		}
	}
}
MOTION
Frames: 7
Frame Time: 0.016667
0.253035 -0.091229 0.761617 14.094353 -8.314130 2.956357 0.000000 -0.000000 0.070167 18.416061 -3.258515 -9.846435 -0.000000 -0.000000 0.166666 5.795387 4.237922 12.066696 0.000000 -0.000000 0.183780 -20.842300 7.901969 16.281708 0.000000 -0.017114 0.132633 -22.915790 10.111696 -19.566332 0.034466 0.004091 0.144174 -5.822083 3.449604 -0.366678 0.121044 0.000000 -0.000000 -48.484094 -8.215905 60.248054 0.257070 -0.000000 -0.000000 -114.655599 -9.714278 -3.186227 0.224060 0.000000 0.000000 -4.074222 -15.208915 18.234185 -0.033538 0.004091 0.144174 8.942934 -1.455009 13.896699 -0.121044 -0.000000 -0.000000 37.400115 -5.746755 -14.131213 -0.257070 0.000000 -0.000000 10.065078 0.622775 12.358782 -0.224060 -0.000000 -0.000000 20.140495 1.017480 8.360566 0.085570 -0.000000 -0.000000 -14.576083 -22.879378 -3.900321 0.000000 0.000000 -0.385526 -7.869807 46.234718 6.454637 -0.000000 0.000000 -0.365921 2.459861 -12.132008 -3.717864 0.000000 -0.128355 -0.055620 0.000000 -0.000001 0.000001 -0.085570 -0.000000 -0.000000 -12.392726 18.841633 16.122511 0.000000 0.000000 -0.385526 21.778323 23.507798 -14.232075 -0.000000 0.000000 -0.365921 -28.695390 -0.894340 -13.366451 0.000000 -0.128355 -0.055620 -0.000000 -0.000001 -0.000000 
0.254252 -0.094836 0.758131 15.040840 -7.976292 3.294936 -0.000000 -0.000000 0.070167 17.183209 -4.293202 -8.842562 0.000000 -0.000000 0.166666 5.286271 5.751824 11.158309 -0.000000 -0.000000 0.183780 -20.834693 8.138880 14.773284 0.000000 -0.017114 0.132633 -23.000763 8.201264 -18.787455 0.034466 0.004091 0.144174 -6.438250 3.418997 -0.624507 0.121044 0.000000 0.000000 -48.512873 -8.268589 60.421786 0.257070 0.000000 0.000000 -114.556363 -7.816593 -4.241918 0.224060 0.000000 0.000000 -3.991671 -14.908481 17.748750 -0.033538 0.004091 0.144174 8.245106 -1.245438 14.107740 -0.121044 -0.000000 -0.000000 37.486517 -6.302978 -14.153615 -0.257070 -0.000000 -0.000000 11.847678 -0.357729 14.283952 -0.224060 0.000000 -0.000000 20.564836 -0.011521 10.094218 0.085570 -0.000000 -0.000000 -15.806755 -23.907388 -4.313362 0.000000 0.000000 -0.385526 -7.187833 48.102854 6.406819 -0.000000 0.000000 -0.365921 1.785616 -12.734817 -3.895150 0.000000 -0.128355 -0.055620 -0.000000 0.000001 0.000001 -0.085570 0.000000 -0.000000 -12.597732 18.673783 16.253605 0.000000 0.000000 -0.385526 22.094986 24.307950 -14.827682 -0.000000 0.000000 -0.365921 -25.880048 -0.504535 -13.689812 -0.000000 -0.128355 -0.055620 -0.000000 0.000003 -0.000000 
0.255147 -0.098550 0.755982 15.728730 -7.880821 3.794450 -0.000000 -0.000000 0.070167 15.951593 -5.033102 -8.128868 -0.000000 -0.000000 0.166666 4.811108 6.937021 10.441682 0.000000 -0.000000 0.183780 -20.688788 8.062842 14.044726 0.000000 -0.017114 0.132633 -22.860063 8.039472 -18.958537 0.034466 0.004091 0.144174 -6.992825 3.592151 -1.110949 0.121044 -0.000000 -0.000000 -48.845224 -8.159075 60.618011 0.257070 0.000000 -0.000000 -114.341246 -5.690652 -5.564048 0.224060 -0.000000 -0.000000 -4.463501 -14.850551 17.056051 -0.033538 0.004091 0.144174 7.713902 -1.084362 14.340616 -0.121044 0.000000 0.000000 37.585787 -6.122987 -14.978726 -0.257070 0.000000 0.000000 13.927131 -1.429070 16.770529 -0.224060 0.000000 0.000000 20.820102 -1.385577 11.428545 0.085570 0.000000 -0.000000 -16.802171 -24.342753 -5.050279 -0.000000 0.000000 -0.385526 -6.841738 49.425680 6.882000 0.000000 0.000000 -0.365921 1.488267 -13.317563 -4.239396 -0.000000 -0.128355 -0.055620 -0.000000 -0.000000 0.000000 -0.085570 -0.000000 0.000000 -12.648405 18.726031 16.099029 0.000000 0.000000 -0.385526 22.921256 24.765482 -15.240073 0.000000 0.000000 -0.365921 -23.468745 0.320314 -13.056317 -0.000000 -0.128355 -0.055620 0.000002 0.000004 0.000000 
0.255426 -0.102426 0.755247 16.107039 -7.994835 4.535130 -0.000000 -0.000000 0.070167 14.817928 -5.429534 -7.642466 -0.000000 -0.000000 0.166666 4.418289 7.658204 9.704271 -0.000000 -0.000000 0.183780 -20.555436 8.222766 13.063905 -0.000000 -0.017114 0.132633 -22.669413 7.805090 -18.686788 0.034466 0.004091 0.144174 -7.331674 3.940583 -1.709239 0.121044 -0.000000 -0.000000 -49.234073 -8.299287 60.793758 0.257070 -0.000000 -0.000000 -113.977989 -4.597085 -6.866259 0.224060 0.000000 0.000000 -4.349280 -15.677007 17.249416 -0.033538 0.004091 0.144174 7.164879 -0.863239 14.362612 -0.121044 -0.000000 -0.000000 37.760834 -5.046522 -16.018981 -0.257070 -0.000000 -0.000000 16.596412 -2.728366 19.551591 -0.224060 -0.000000 0.000000 20.812790 -3.291651 12.559764 0.085570 0.000000 0.000000 -17.139038 -24.212831 -5.960226 -0.000000 0.000000 -0.385526 -6.596279 50.247485 7.292194 -0.000000 0.000000 -0.365921 1.288625 -13.845159 -4.550499 -0.000000 -0.128355 -0.055620 -0.000000 -0.000001 0.000000 -0.085570 0.000000 0.000000 -12.209300 18.972689 15.451671 -0.000000 0.000000 -0.385526 24.965006 24.820735 -15.921058 0.000000 0.000000 -0.365921 -22.594040 1.277463 -12.720852 -0.000000 -0.128355 -0.055620 0.000001 -0.000002 -0.000000 
0.255756 -0.106633 0.756200 16.133286 -8.377901 5.333163 -0.000000 0.000000 0.070167 13.898064 -5.502984 -7.285362 0.000000 -0.000000 0.166666 4.124826 8.095728 8.937458 0.000000 -0.000000 0.183780 -20.442406 8.586316 12.352529 0.000000 -0.017114 0.132633 -22.483823 7.726621 -18.861970 0.034466 0.004091 0.144174 -7.424920 4.496368 -2.223244 0.121044 -0.000000 -0.000000 -49.570801 -8.689114 60.733018 0.257070 -0.000000 0.000000 -113.539881 -4.151874 -7.683196 0.224060 0.000000 -0.000000 -4.726191 -16.459405 17.916616 -0.033538 0.004091 0.144174 6.356790 -0.837905 14.452679 -0.121044 -0.000000 0.000000 38.136508 -3.605398 -17.673239 -0.257070 0.000000 0.000000 19.724150 -3.662950 22.718379 -0.224060 0.000000 0.000000 20.840666 -5.147122 13.609767 0.085570 0.000000 -0.000000 -16.656849 -23.461061 -6.636171 -0.000000 0.000000 -0.385526 -6.152752 50.488427 7.124009 0.000000 0.000000 -0.365921 1.099002 -14.342009 -4.700823 -0.000000 -0.128355 -0.055620 -0.000000 0.000001 0.000001 -0.085570 0.000000 -0.000000 -11.043331 19.470771 14.507262 0.000000 0.000000 -0.385526 27.373581 24.631452 -16.748850 -0.000000 0.000000 -0.365921 -22.352166 3.422510 -11.243635 0.000000 -0.128355 -0.055620 0.000000 -0.000000 0.000000 
0.255835 -0.110774 0.758274 15.959777 -8.904779 6.100572 -0.000000 -0.000000 0.070167 13.053710 -5.183063 -6.996692 -0.000000 -0.000000 0.166666 3.858707 8.058469 8.601926 -0.000000 0.000000 0.183780 -19.991989 8.844921 11.558844 0.000000 -0.017114 0.132633 -21.900001 8.406039 -19.351775 0.034466 0.004091 0.144174 -7.578838 4.993672 -2.923036 0.121044 0.000000 -0.000000 -49.170713 -9.180958 60.838469 0.257070 0.000000 -0.000000 -113.370567 -4.793072 -7.444133 0.224060 0.000000 0.000000 -4.838305 -16.693331 17.696800 -0.033538 0.004091 0.144174 5.414197 -0.923788 13.951624 -0.121044 -0.000000 0.000000 38.461150 -1.785315 -19.932165 -0.257070 0.000000 -0.000000 23.714991 -3.826400 26.622696 -0.224060 -0.000000 -0.000000 20.739154 -6.644911 15.565528 0.085570 0.000000 -0.000000 -15.519809 -22.372800 -7.022656 -0.000000 0.000000 -0.385526 -5.487734 50.283897 6.280538 -0.000000 0.000000 -0.365921 0.809242 -14.769924 -4.761199 -0.000000 -0.128355 -0.055620 -0.000000 0.000001 0.000000 -0.085570 0.000000 -0.000000 -9.578694 19.975431 13.471688 0.000000 0.000000 -0.385526 28.945901 24.688865 -17.283409 0.000000 0.000000 -0.365921 -21.897559 5.535926 -10.824726 0.000000 -0.128355 -0.055620 0.000000 -0.000002 -0.000000 
0.255742 -0.114800 0.761485 15.423438 -9.543655 6.928733 -0.000000 0.000000 0.070167 12.301223 -4.743114 -6.902547 0.000000 -0.000000 0.166666 3.622984 7.922323 8.386986 0.000000 -0.000000 0.183780 -19.824651 9.350997 10.487786 -0.000000 -0.017114 0.132633 -21.600997 8.569198 -19.462996 0.034466 0.004091 0.144174 -7.572153 5.384284 -3.553886 0.121044 0.000000 -0.000000 -48.664572 -9.677014 60.895870 0.257070 -0.000000 -0.000000 -113.297457 -5.272626 -6.943276 0.224060 -0.000000 0.000000 -5.061723 -16.469635 18.518789 -0.033538 0.004091 0.144174 4.276813 -0.979656 13.332402 -0.121044 -0.000000 -0.000000 38.622616 -0.772713 -22.613993 -0.257070 -0.000000 -0.000000 28.295358 -2.366326 30.825258 -0.224060 -0.000000 0.000000 20.340645 -7.247480 17.016337 0.085570 0.000000 -0.000000 -14.327888 -20.919608 -7.608421 -0.000000 0.000000 -0.385526 -4.463439 49.698488 5.180212 0.000000 0.000000 -0.365921 0.297043 -15.226148 -4.449241 0.000000 -0.128355 -0.055620 -0.000000 0.000001 0.000000 -0.085570 0.000000 -0.000000 -7.570841 20.376993 12.171119 -0.000000 0.000000 -0.385526 30.168713 24.824746 -17.757141 -0.000000 0.000000 -0.365921 -21.344869 8.050501 -10.323082 -0.000000 -0.128355 -0.055620 -0.000000 -0.000001 0.000000 
